<?xml version="1.0" standalone="no"?>
<!DOCTYPE svg PUBLIC "-//W3C//DTD SVG 20010904//EN"
 "http://www.w3.org/TR/2001/REC-SVG-20010904/DTD/svg10.dtd">
<svg version="1.0" xmlns="http://www.w3.org/2000/svg"
 width="300.000000pt" height="300.000000pt" viewBox="0 0 300.000000 300.000000"
 preserveAspectRatio="xMidYMid meet">
<metadata>
Created by potrace 1.14, written by Peter Selinger 2001-2017
</metadata>
<g transform="translate(0.000000,300.000000) scale(0.100000,-0.100000)"
fill="#000000" stroke="none">
<path d="M817 2253 c39 -43 83 -89 97 -102 l26 -24 0 -573 0 -573 -42 -33
c-24 -19 -83 -66 -133 -104 l-90 -69 77 -3 78 -3 26 -44 26 -45 259 0 c375 0
524 21 674 95 169 84 293 252 345 468 44 182 46 428 5 590 -33 128 -114 259
-196 318 -27 19 -34 20 -54 9 -22 -12 -28 -10 -64 23 -53 47 -144 93 -240 119
-70 20 -107 22 -470 26 l-395 4 71 -79z m793 -12 c150 -45 250 -120 325 -246
79 -132 114 -331 95 -537 -26 -278 -124 -455 -305 -549 -123 -65 -178 -72
-550 -76 -269 -3 -327 -1 -315 9 9 7 44 35 78 61 l62 48 0 598 0 597 -46 44
c-90 88 -109 82 258 78 299 -4 329 -6 398 -27z m395 -210 c103 -132 149 -348
126 -589 -37 -399 -197 -601 -532 -677 -57 -13 -142 -18 -380 -22 -275 -5
-307 -3 -312 11 -6 14 19 16 246 16 351 0 487 19 617 85 157 80 271 242 316
450 25 115 25 372 0 480 -22 99 -72 209 -117 261 -62 70 -68 81 -31 54 18 -13
48 -44 67 -69z"/>
<path d="M1220 1552 l0 -632 30 0 30 0 2 593 3 592 99 3 c109 3 170 -11 221
-52 l30 -24 -60 20 c-40 14 -94 23 -162 26 l-103 4 0 -582 0 -583 85 6 c132 9
207 52 278 160 78 117 111 268 110 497 0 234 -40 373 -136 477 -71 78 -156
109 -324 120 l-103 6 0 -631z m305 452 c33 -9 71 -18 85 -18 32 -2 73 -81 97
-186 23 -105 23 -365 -1 -475 -34 -152 -111 -277 -199 -318 -18 -9 -56 -19
-85 -23 l-52 -7 0 522 0 521 48 0 c26 0 75 -7 107 -16z"/>
</g>
</svg>
